Coordinates
version=1
nRows=32
nColumns=12
inDegrees=yes

Units are S.I. units (second, meters, Newtons, ...)
Angles are in degrees

endheader
time	SC_y	SC_z	SC_x	AC_y	AC_z	AC_x	GH_y	GH_z	GH_yy	EL_x	PS_y
       0.0              -37.35          36.52          72.08          50.77         -18.71         -9.502         -64.68          18.49         -102.0          86.33          79.63
   0.02526              -37.35          36.52          72.08          50.77         -18.71         -9.503         -64.68          18.49         -101.9          86.33          79.62
   0.05053              -37.35          36.51          72.08          50.76         -18.71         -9.504         -64.68          18.49         -101.9          86.33          79.61
   0.07579              -37.34          36.51          72.08          50.76         -18.71         -9.505         -64.68          18.49         -101.9          86.33           79.6
    0.1011              -37.34          36.51          72.09          50.76         -18.71         -9.506         -64.68          18.48         -101.9          86.33          79.59
    0.1263              -37.34          36.51          72.09          50.75         -18.71         -9.507         -64.68          18.48         -101.8          86.33          79.57
    0.1516              -37.33          36.51          72.09          50.75         -18.71         -9.508         -64.68          18.48         -101.8          86.33          79.56
    0.1769              -37.33           36.5          72.09          50.75         -18.71          -9.51         -64.68          18.48         -101.8          86.33          79.55
    0.2021              -37.33           36.5          72.09          50.74         -18.71         -9.511         -64.68          18.48         -101.7          86.33          79.53
    0.2274              -37.32           36.5           72.1          50.74         -18.71         -9.513         -64.68          18.47         -101.7          86.33          79.52
    0.2526              -37.32          36.49           72.1          50.73         -18.71         -9.514         -64.68          18.47         -101.6          86.33           79.5
    0.2779              -37.32          36.49           72.1          50.73         -18.71         -9.516         -64.68          18.47         -101.6          86.33          79.48
    0.3032              -37.31          36.49           72.1          50.72         -18.71         -9.518         -64.68          18.47         -101.6          86.33          79.46
    0.3284              -37.31          36.48          72.11          50.72         -18.71          -9.52         -64.69          18.46         -101.5          86.32          79.44
    0.3537               -37.3          36.48          72.11          50.71         -18.71         -9.522         -64.69          18.46         -101.4          86.32          79.42
     0.379               -37.3          36.47          72.11          50.71         -18.71         -9.524         -64.69          18.46         -101.4          86.32          79.39
    0.4042              -37.29          36.47          72.12           50.7         -18.71         -9.527         -64.69          18.45         -101.3          86.32          79.37
    0.4295              -37.28          36.46          72.12          50.69         -18.71         -9.529         -64.69          18.45         -101.2          86.32          79.34
    0.4548              -37.28          36.46          72.13          50.68         -18.71         -9.532         -64.69          18.44         -101.2          86.32           79.3
      0.48              -37.27          36.45          72.13          50.67         -18.71         -9.536         -64.69          18.44         -101.1          86.32          79.27
    0.5053              -37.26          36.44          72.14          50.66         -18.71         -9.539         -64.69          18.43         -101.0          86.32          79.23
    0.5306              -37.25          36.43          72.14          50.65         -18.71         -9.543          -64.7          18.43         -100.9          86.32          79.19
    0.5558              -37.24          36.42          72.15          50.64         -18.71         -9.548          -64.7          18.42         -100.8          86.32          79.14
    0.5811              -37.23          36.41          72.16          50.63         -18.71         -9.553          -64.7          18.41         -100.7          86.32          79.09
    0.6063              -37.21           36.4          72.16          50.61         -18.71         -9.558          -64.7          18.41         -100.5          86.32          79.03
    0.6316               -37.2          36.39          72.17          50.59         -18.71         -9.564         -64.71           18.4         -100.4          86.32          78.97
    0.6569              -37.18          36.38          72.18          50.57         -18.71         -9.571         -64.71          18.39         -100.2          86.32          78.89
    0.6821              -37.16          36.36           72.2          50.55         -18.71         -9.579         -64.71          18.38         -99.98          86.32          78.81
    0.7074              -37.14          36.34          72.21          50.53         -18.71         -9.587         -64.72          18.36         -99.76          86.32          78.72
    0.7327              -37.12          36.32          72.22           50.5         -18.71         -9.597         -64.72          18.35         -99.51          86.32          78.62
    0.7579              -37.09           36.3          72.24          50.47         -18.71         -9.608         -64.73          18.33         -99.22          86.32           78.5
    0.7832              -37.06          36.28          72.26          50.43         -18.71         -9.621         -64.73          18.31         -98.89          86.31          78.36
